<svg xmlns="http://www.w3.org/2000/svg" xmlns:xlink="http://www.w3.org/1999/xlink" width="1136" zoomAndPan="magnify" viewBox="0 0 852 245.999995" height="328" preserveAspectRatio="xMidYMid meet" version="1.0"><defs><g/><clipPath id="d1d3bd6c99"><path d="M 217.015625 14.257812 L 390.265625 14.257812 L 390.265625 229.507812 L 217.015625 229.507812 Z M 217.015625 14.257812 " clip-rule="nonzero"/></clipPath></defs><path fill="#d59a3a" d="M 286.308594 127.304688 L 303.625 93.75 L 303.625 144.476562 Z M 286.308594 127.304688 " fill-opacity="1" fill-rule="evenodd"/><path fill="#ffffff" d="M 320.9375 127.304688 L 303.621094 93.75 L 303.621094 144.476562 Z M 320.9375 127.304688 " fill-opacity="1" fill-rule="evenodd"/><path fill="#d59a3a" d="M 320.9375 161.644531 L 303.621094 195.195312 L 303.621094 144.476562 Z M 320.9375 161.644531 " fill-opacity="1" fill-rule="evenodd"/><path fill="#ffffff" d="M 286.308594 161.644531 L 303.625 195.195312 L 303.625 144.476562 Z M 286.308594 161.644531 " fill-opacity="1" fill-rule="evenodd"/><path fill="#d59a3a" d="M 320.792969 127.160156 L 354.351562 144.476562 L 303.625 144.476562 Z M 320.792969 127.160156 " fill-opacity="1" fill-rule="evenodd"/><path fill="#ffffff" d="M 320.792969 161.789062 L 354.351562 144.472656 L 303.625 144.472656 Z M 320.792969 161.789062 " fill-opacity="1" fill-rule="evenodd"/><path fill="#d59a3a" d="M 286.453125 161.789062 L 252.898438 144.472656 L 303.625 144.472656 Z M 286.453125 161.789062 " fill-opacity="1" fill-rule="evenodd"/><path fill="#ffffff" d="M 286.453125 127.160156 L 252.898438 144.476562 L 303.625 144.476562 Z M 286.453125 127.160156 " fill-opacity="1" fill-rule="evenodd"/><path fill="#d59a3a" d="M 345.511719 102.636719 L 345.6875 102.460938 L 345.574219 102.519531 L 345.632812 102.410156 L 345.457031 102.582031 L 320.9375 115.585938 L 332.511719 127.160156 Z M 345.511719 102.636719 " fill-opacity="1" fill-rule="evenodd"/><path fill="#d59a3a" d="M 260.277344 186.308594 L 260.101562 186.488281 L 260.21875 186.425781 L 260.15625 186.542969 L 260.332031 186.367188 L 284.855469 173.363281 L 279.09375 167.605469 L 273.277344 161.789062 Z M 260.277344 186.308594 " fill-opacity="1" fill-rule="evenodd"/><path fill="#d59a3a" d="M 344.730469 187.09375 L 344.90625 187.265625 L 344.847656 187.152344 L 344.960938 187.214844 L 344.785156 187.035156 L 331.785156 162.515625 L 325.972656 168.328125 L 320.210938 174.09375 Z M 344.730469 187.09375 " fill-opacity="1" fill-rule="evenodd"/><path fill="#d59a3a" d="M 261.058594 101.855469 L 260.882812 101.683594 L 260.945312 101.796875 L 260.828125 101.738281 L 261.003906 101.910156 L 274.007812 126.433594 L 279.765625 120.671875 L 279.820312 120.617188 L 285.578125 114.855469 Z M 261.058594 101.855469 " fill-opacity="1" fill-rule="evenodd"/><g clip-path="url(#d1d3bd6c99)"><path fill="#ffffff" d="M 328.304688 215.160156 C 322.199219 217.296875 315.921875 218.5625 309.632812 219.027344 L 303.355469 209.117188 L 297.152344 218.914062 C 276.109375 216.96875 256.058594 206.304688 242.910156 189.097656 C 233.800781 177.179688 228.851562 163.152344 227.871094 148.855469 L 237.191406 142.957031 L 227.957031 137.109375 C 229.035156 124.109375 233.351562 111.300781 240.804688 100.066406 C 253.667969 80.675781 275.015625 69.320312 297.4375 67.449219 L 303.355469 76.789062 L 309.335938 67.347656 C 314.519531 67.695312 319.691406 68.550781 324.761719 69.945312 C 355.226562 78.324219 376.472656 105.933594 379.414062 136.691406 L 369.519531 142.957031 L 379.445312 149.238281 C 376.746094 179.132812 357.058594 205.070312 328.308594 215.160156 Z M 287.78125 41.34375 C 287.78125 32.59375 294.875 25.5 303.625 25.5 C 312.375 25.5 319.46875 32.59375 319.46875 41.34375 C 319.46875 48.703125 314.449219 54.890625 307.648438 56.671875 L 307.910156 56.683594 C 305.082031 56.5625 302.25 56.582031 299.421875 56.734375 L 299.773438 56.714844 C 292.882812 54.996094 287.78125 48.765625 287.78125 41.34375 Z M 307.925781 56.683594 C 308.390625 56.703125 308.855469 56.730469 309.316406 56.753906 C 308.855469 56.726562 308.390625 56.703125 307.925781 56.683594 Z M 309.367188 56.757812 C 309.832031 56.785156 310.296875 56.816406 310.761719 56.851562 Z M 310.777344 56.851562 C 311.238281 56.886719 311.695312 56.925781 312.15625 56.96875 C 311.695312 56.925781 311.238281 56.886719 310.777344 56.851562 Z M 312.210938 56.972656 C 312.664062 57.011719 313.113281 57.058594 313.566406 57.105469 C 313.113281 57.058594 312.660156 57.011719 312.210938 56.972656 Z M 313.640625 57.113281 C 314.09375 57.164062 314.550781 57.214844 315.003906 57.273438 C 314.546875 57.214844 314.09375 57.164062 313.640625 57.113281 Z M 315.015625 57.273438 C 315.484375 57.332031 315.949219 57.394531 316.410156 57.460938 C 315.949219 57.394531 315.484375 57.332031 315.015625 57.273438 Z M 316.429688 57.460938 C 316.882812 57.523438 317.332031 57.59375 317.78125 57.664062 C 317.332031 57.59375 316.878906 57.527344 316.429688 57.460938 Z M 317.851562 57.675781 C 318.296875 57.746094 318.742188 57.820312 319.183594 57.894531 C 318.742188 57.820312 318.296875 57.742188 317.851562 57.675781 Z M 319.277344 57.914062 C 319.722656 57.992188 320.171875 58.074219 320.613281 58.160156 C 320.167969 58.074219 319.722656 57.988281 319.277344 57.914062 Z M 320.648438 58.164062 C 321.097656 58.253906 321.550781 58.34375 322 58.4375 C 321.550781 58.34375 321.097656 58.253906 320.648438 58.164062 Z M 322.066406 58.449219 C 322.507812 58.542969 322.945312 58.640625 323.386719 58.738281 C 322.945312 58.640625 322.507812 58.542969 322.066406 58.449219 Z M 323.460938 58.757812 L 324.195312 58.929688 C 328.242188 54.199219 330.6875 48.058594 330.6875 41.34375 C 330.6875 26.398438 318.566406 14.277344 303.621094 14.277344 C 288.675781 14.277344 276.554688 26.398438 276.554688 41.34375 C 276.554688 48.144531 279.0625 54.355469 283.199219 59.109375 L 283.824219 58.960938 C 275.488281 60.90625 267.40625 64.042969 259.910156 68.324219 C 233.289062 83.523438 217.375 112.78125 217.015625 143.105469 C 216.660156 173.746094 233.933594 202.273438 259.910156 217.886719 C 286.542969 233.890625 320.636719 233.121094 347.335938 217.886719 C 373.953125 202.691406 389.871094 173.425781 390.226562 143.105469 C 389.867188 112.261719 373.773438 84.210938 347.335938 68.324219 C 339.855469 63.828125 331.789062 60.660156 323.464844 58.761719 Z M 283.890625 58.945312 C 284.339844 58.839844 284.785156 58.738281 285.234375 58.644531 C 284.785156 58.742188 284.339844 58.839844 283.890625 58.945312 Z M 285.273438 58.632812 C 285.71875 58.535156 286.164062 58.445312 286.609375 58.355469 C 286.164062 58.445312 285.71875 58.535156 285.273438 58.632812 Z M 286.6875 58.339844 C 287.136719 58.25 287.582031 58.164062 288.03125 58.082031 C 287.582031 58.164062 287.136719 58.25 286.6875 58.339844 Z M 288.074219 58.074219 C 288.53125 57.988281 288.992188 57.910156 289.449219 57.832031 C 288.988281 57.910156 288.53125 57.988281 288.074219 58.074219 Z M 289.472656 57.828125 C 289.9375 57.75 290.398438 57.679688 290.863281 57.609375 C 290.398438 57.679688 289.9375 57.75 289.472656 57.828125 Z M 290.875 57.609375 C 291.796875 57.46875 292.722656 57.34375 293.648438 57.234375 C 292.722656 57.34375 291.796875 57.46875 290.875 57.609375 Z M 293.726562 57.222656 C 294.175781 57.171875 294.625 57.121094 295.074219 57.074219 C 294.625 57.121094 294.175781 57.171875 293.726562 57.222656 Z M 295.125 57.070312 C 295.578125 57.023438 296.03125 56.980469 296.484375 56.941406 C 296.03125 56.980469 295.578125 57.023438 295.125 57.070312 Z M 296.59375 56.933594 C 297.042969 56.894531 297.492188 56.859375 297.941406 56.824219 C 297.492188 56.855469 297.042969 56.890625 296.59375 56.933594 Z M 297.960938 56.824219 C 298.417969 56.792969 298.875 56.765625 299.332031 56.738281 C 298.875 56.765625 298.417969 56.792969 297.960938 56.824219 Z M 297.960938 56.824219 " fill-opacity="1" fill-rule="evenodd"/></g><g fill="#ffffff" fill-opacity="1"><g transform="translate(123.28992, 175.84282)"><g><path d="M 45.359375 -10.125 C 49.859375 -10.125 54.023438 -11.207031 57.859375 -13.375 C 61.703125 -15.539062 64.941406 -18.410156 67.578125 -21.984375 L 76.0625 -13.84375 C 72.34375 -9.425781 67.828125 -5.820312 62.515625 -3.03125 C 57.203125 -0.238281 51.484375 1.15625 45.359375 1.15625 C 39.773438 1.15625 34.5 0.0351562 29.53125 -2.203125 C 24.570312 -4.453125 20.269531 -7.492188 16.625 -11.328125 C 12.988281 -15.171875 10.101562 -19.671875 7.96875 -24.828125 C 5.832031 -29.984375 4.765625 -35.429688 4.765625 -41.171875 C 4.765625 -46.984375 5.832031 -52.445312 7.96875 -57.5625 C 10.101562 -62.6875 12.988281 -67.164062 16.625 -71 C 20.269531 -74.84375 24.570312 -77.890625 29.53125 -80.140625 C 34.5 -82.390625 39.773438 -83.515625 45.359375 -83.515625 C 50.554688 -83.515625 55.460938 -82.484375 60.078125 -80.421875 C 64.691406 -78.367188 68.820312 -75.675781 72.46875 -72.34375 L 65.25 -63.15625 C 62.6875 -65.875 59.695312 -68.101562 56.28125 -69.84375 C 52.875 -71.59375 49.234375 -72.46875 45.359375 -72.46875 C 41.410156 -72.46875 37.707031 -71.632812 34.25 -69.96875 C 30.800781 -68.300781 27.796875 -66.03125 25.234375 -63.15625 C 22.679688 -60.289062 20.644531 -56.976562 19.125 -53.21875 C 17.613281 -49.457031 16.859375 -45.441406 16.859375 -41.171875 C 16.859375 -36.910156 17.613281 -32.898438 19.125 -29.140625 C 20.644531 -25.378906 22.679688 -22.082031 25.234375 -19.25 C 27.796875 -16.414062 30.800781 -14.1875 34.25 -12.5625 C 37.707031 -10.9375 41.410156 -10.125 45.359375 -10.125 Z M 45.359375 -10.125 "/></g></g></g><g fill="#ffffff" fill-opacity="1"><g transform="translate(203.10015, 175.84282)"><g/></g></g><g fill="#d11b1b" fill-opacity="1"><g transform="translate(448.755216, 60.174035)"><g><path d="M 19.359375 -7.015625 C 20.984375 -7.015625 22.570312 -7.382812 24.125 -8.125 C 25.6875 -8.875 27.265625 -10.128906 28.859375 -11.890625 L 33.84375 -7.171875 C 31.84375 -4.585938 29.5625 -2.632812 27 -1.3125 C 24.445312 0 21.816406 0.65625 19.109375 0.65625 C 16.671875 0.65625 14.382812 0.15625 12.25 -0.84375 C 10.113281 -1.84375 8.253906 -3.1875 6.671875 -4.875 C 5.097656 -6.570312 3.863281 -8.546875 2.96875 -10.796875 C 2.070312 -13.046875 1.625 -15.441406 1.625 -17.984375 C 1.625 -20.523438 2.085938 -22.910156 3.015625 -25.140625 C 3.953125 -27.378906 5.21875 -29.347656 6.8125 -31.046875 C 8.40625 -32.742188 10.285156 -34.082031 12.453125 -35.0625 C 14.617188 -36.039062 16.921875 -36.53125 19.359375 -36.53125 C 21.628906 -36.53125 23.785156 -36.109375 25.828125 -35.265625 C 27.878906 -34.421875 29.890625 -33.015625 31.859375 -31.046875 L 27.390625 -25.609375 C 25.960938 -26.929688 24.613281 -27.820312 23.34375 -28.28125 C 22.070312 -28.738281 20.742188 -28.96875 19.359375 -28.96875 C 17.972656 -28.96875 16.660156 -28.675781 15.421875 -28.09375 C 14.179688 -27.519531 13.101562 -26.738281 12.1875 -25.75 C 11.28125 -24.769531 10.5625 -23.613281 10.03125 -22.28125 C 9.507812 -20.945312 9.25 -19.515625 9.25 -17.984375 C 9.25 -16.460938 9.507812 -15.039062 10.03125 -13.71875 C 10.5625 -12.394531 11.28125 -11.234375 12.1875 -10.234375 C 13.101562 -9.234375 14.179688 -8.445312 15.421875 -7.875 C 16.660156 -7.300781 17.972656 -7.015625 19.359375 -7.015625 Z M 19.359375 -7.015625 "/></g></g></g><g fill="#ffffff" fill-opacity="1"><g transform="translate(499.427088, 60.174035)"><g><path d="M 22.765625 -36.03125 L 30.4375 -36.03125 L 30.4375 -13.015625 C 30.4375 -11.210938 30.0625 -9.476562 29.3125 -7.8125 C 28.570312 -6.15625 27.554688 -4.703125 26.265625 -3.453125 C 24.984375 -2.203125 23.484375 -1.203125 21.765625 -0.453125 C 20.054688 0.285156 18.222656 0.65625 16.265625 0.65625 C 14.328125 0.65625 12.492188 0.285156 10.765625 -0.453125 C 9.046875 -1.203125 7.550781 -2.203125 6.28125 -3.453125 C 5.007812 -4.703125 4 -6.15625 3.25 -7.8125 C 2.507812 -9.476562 2.140625 -11.210938 2.140625 -13.015625 L 2.140625 -36.03125 L 9.8125 -36.03125 L 9.8125 -14.53125 C 9.8125 -13.519531 9.976562 -12.5625 10.3125 -11.65625 C 10.65625 -10.757812 11.113281 -9.960938 11.6875 -9.265625 C 12.257812 -8.578125 12.941406 -8.03125 13.734375 -7.625 C 14.535156 -7.21875 15.378906 -7.015625 16.265625 -7.015625 C 17.171875 -7.015625 18.015625 -7.21875 18.796875 -7.625 C 19.578125 -8.03125 20.265625 -8.578125 20.859375 -9.265625 C 21.453125 -9.960938 21.914062 -10.757812 22.25 -11.65625 C 22.59375 -12.5625 22.765625 -13.519531 22.765625 -14.53125 Z M 22.765625 -36.03125 "/></g></g></g><g fill="#1e7d58" fill-opacity="1"><g transform="translate(547.298183, 60.174035)"><g><path d="M 10.109375 -6.96875 L 24.890625 -6.96875 L 24.890625 0 L 2.390625 0 L 2.390625 -36.03125 L 10.109375 -36.03125 Z M 10.109375 -6.96875 "/></g></g></g><g fill="#d59a3a" fill-opacity="1"><g transform="translate(588.055993, 60.174035)"><g><path d="M 1.171875 -36.03125 L 27.234375 -36.03125 L 27.234375 -29.015625 L 18.03125 -29.015625 L 18.03125 0 L 10.359375 0 L 10.359375 -29.015625 L 1.171875 -29.015625 Z M 1.171875 -36.03125 "/></g></g></g><g fill="#ffffff" fill-opacity="1"><g transform="translate(631.813802, 60.174035)"><g><path d="M 22.765625 -36.03125 L 30.4375 -36.03125 L 30.4375 -13.015625 C 30.4375 -11.210938 30.0625 -9.476562 29.3125 -7.8125 C 28.570312 -6.15625 27.554688 -4.703125 26.265625 -3.453125 C 24.984375 -2.203125 23.484375 -1.203125 21.765625 -0.453125 C 20.054688 0.285156 18.222656 0.65625 16.265625 0.65625 C 14.328125 0.65625 12.492188 0.285156 10.765625 -0.453125 C 9.046875 -1.203125 7.550781 -2.203125 6.28125 -3.453125 C 5.007812 -4.703125 4 -6.15625 3.25 -7.8125 C 2.507812 -9.476562 2.140625 -11.210938 2.140625 -13.015625 L 2.140625 -36.03125 L 9.8125 -36.03125 L 9.8125 -14.53125 C 9.8125 -13.519531 9.976562 -12.5625 10.3125 -11.65625 C 10.65625 -10.757812 11.113281 -9.960938 11.6875 -9.265625 C 12.257812 -8.578125 12.941406 -8.03125 13.734375 -7.625 C 14.535156 -7.21875 15.378906 -7.015625 16.265625 -7.015625 C 17.171875 -7.015625 18.015625 -7.21875 18.796875 -7.625 C 19.578125 -8.03125 20.265625 -8.578125 20.859375 -9.265625 C 21.453125 -9.960938 21.914062 -10.757812 22.25 -11.65625 C 22.59375 -12.5625 22.765625 -13.519531 22.765625 -14.53125 Z M 22.765625 -36.03125 "/></g></g></g><g fill="#1e7d58" fill-opacity="1"><g transform="translate(679.684889, 60.174035)"><g><path d="M 28.296875 -25.296875 C 28.296875 -24.148438 28.132812 -23.0625 27.8125 -22.03125 C 27.5 -21 27.050781 -20.050781 26.46875 -19.1875 C 25.894531 -18.320312 25.203125 -17.554688 24.390625 -16.890625 C 23.578125 -16.234375 22.695312 -15.703125 21.75 -15.296875 L 33.6875 0 L 24.6875 0 L 13.5625 -14.53125 L 10.109375 -14.53125 L 10.109375 0 L 2.390625 0 L 2.390625 -36.03125 L 17.9375 -36.03125 C 19.363281 -36.03125 20.707031 -35.75 21.96875 -35.1875 C 23.238281 -34.625 24.335938 -33.859375 25.265625 -32.890625 C 26.203125 -31.929688 26.941406 -30.800781 27.484375 -29.5 C 28.023438 -28.195312 28.296875 -26.796875 28.296875 -25.296875 Z M 16.96875 -21.546875 C 17.945312 -21.546875 18.789062 -21.910156 19.5 -22.640625 C 20.21875 -23.367188 20.578125 -24.253906 20.578125 -25.296875 C 20.578125 -26.316406 20.21875 -27.191406 19.5 -27.921875 C 18.789062 -28.648438 17.945312 -29.015625 16.96875 -29.015625 L 10.109375 -29.015625 L 10.109375 -21.546875 Z M 16.96875 -21.546875 "/></g></g></g><g fill="#d11b1b" fill-opacity="1"><g transform="translate(729.946609, 60.174035)"><g><path d="M 2.4375 -36.03125 L 24.953125 -36.03125 L 24.953125 -29.015625 L 10.15625 -29.015625 L 10.15625 -22.515625 L 23.171875 -22.515625 L 23.171875 -15.5 L 10.15625 -15.5 L 10.15625 -6.96875 L 24.953125 -6.96875 L 24.953125 0 L 2.4375 0 Z M 2.4375 -36.03125 "/></g></g></g><g fill="#ffffff" fill-opacity="1"><g transform="translate(401.11916, 175.84282)"><g><path d="M 76.765625 -82.46875 L 88.984375 -82.46875 L 88.984375 0 L 76.875 0 L 76.875 -63.28125 L 52.8125 -30.125 L 43.390625 -30.125 L 19.1875 -63.28125 L 19.1875 0 L 6.984375 0 L 6.984375 -82.46875 L 19.1875 -82.46875 L 48.03125 -42.796875 Z M 76.765625 -82.46875 "/></g></g></g><g fill="#ffffff" fill-opacity="1"><g transform="translate(497.063575, 175.84282)"><g><path d="M 39.78125 -82.46875 C 43.03125 -82.46875 46.085938 -81.847656 48.953125 -80.609375 C 51.828125 -79.367188 54.332031 -77.703125 56.46875 -75.609375 C 58.601562 -73.515625 60.289062 -71.050781 61.53125 -68.21875 C 62.769531 -65.382812 63.390625 -62.34375 63.390625 -59.09375 C 63.390625 -55.832031 62.769531 -52.765625 61.53125 -49.890625 C 60.289062 -47.023438 58.601562 -44.546875 56.46875 -42.453125 C 54.332031 -40.359375 51.828125 -38.707031 48.953125 -37.5 C 46.085938 -36.300781 43.03125 -35.703125 39.78125 -35.703125 L 18.375 -35.59375 L 18.375 0 L 6.28125 0 L 6.28125 -82.46875 Z M 39.78125 -46.984375 C 41.40625 -46.984375 42.9375 -47.3125 44.375 -47.96875 C 45.8125 -48.632812 47.070312 -49.507812 48.15625 -50.59375 C 49.238281 -51.675781 50.085938 -52.972656 50.703125 -54.484375 C 51.328125 -56.003906 51.640625 -57.613281 51.640625 -59.3125 C 51.640625 -61.019531 51.328125 -62.609375 50.703125 -64.078125 C 50.085938 -65.554688 49.238281 -66.859375 48.15625 -67.984375 C 47.070312 -69.109375 45.8125 -70 44.375 -70.65625 C 42.9375 -71.320312 41.40625 -71.65625 39.78125 -71.65625 L 18.375 -71.65625 L 18.375 -46.984375 Z M 39.78125 -46.984375 "/></g></g></g><g fill="#ffffff" fill-opacity="1"><g transform="translate(564.747974, 175.84282)"><g><path d="M 14.546875 0 L 1.28125 0 L 35.59375 -82.46875 L 48.96875 -82.46875 L 83.28125 0 L 70.140625 0 L 59.3125 -25.828125 L 25.234375 -25.828125 Z M 29.890625 -36.984375 L 54.671875 -36.984375 L 42.34375 -66.765625 Z M 29.890625 -36.984375 "/></g></g></g><g fill="#ffffff" fill-opacity="1"><g transform="translate(649.876831, 175.84282)"><g><path d="M 61.53125 -23.140625 C 61.53125 -19.648438 60.832031 -16.410156 59.4375 -13.421875 C 58.039062 -10.441406 55.984375 -7.828125 53.265625 -5.578125 C 47.921875 -1.085938 41.0625 1.15625 32.6875 1.15625 C 26.164062 1.15625 20.269531 -0.175781 15 -2.84375 C 9.726562 -5.519531 5.851562 -9.109375 3.375 -13.609375 L 13.71875 -18.953125 C 15.269531 -16.160156 17.734375 -14.007812 21.109375 -12.5 C 24.484375 -10.988281 28.34375 -10.234375 32.6875 -10.234375 C 43.925781 -10.234375 49.546875 -14.535156 49.546875 -23.140625 C 49.546875 -24.773438 49.253906 -26.171875 48.671875 -27.328125 C 48.085938 -28.492188 47.21875 -29.582031 46.0625 -30.59375 C 43.269531 -32.914062 38.269531 -35.007812 31.0625 -36.875 C 26.71875 -37.957031 23.03125 -39.15625 20 -40.46875 C 16.976562 -41.789062 14.460938 -43.34375 12.453125 -45.125 C 7.566406 -49.082031 5.125 -54.316406 5.125 -60.828125 C 5.125 -64.085938 5.757812 -67.128906 7.03125 -69.953125 C 8.3125 -72.785156 10.117188 -75.25 12.453125 -77.34375 C 14.847656 -79.4375 17.65625 -81.003906 20.875 -82.046875 C 24.09375 -83.097656 27.640625 -83.625 31.515625 -83.625 C 37.179688 -83.625 42.394531 -82.535156 47.15625 -80.359375 C 51.925781 -78.191406 55.554688 -75.132812 58.046875 -71.1875 L 48.625 -65.375 C 46.375 -68.082031 43.773438 -70 40.828125 -71.125 C 37.878906 -72.25 34.773438 -72.8125 31.515625 -72.8125 C 29.191406 -72.8125 27.0625 -72.421875 25.125 -71.640625 C 23.1875 -70.867188 21.554688 -69.941406 20.234375 -68.859375 C 19.148438 -67.929688 18.351562 -66.785156 17.84375 -65.421875 C 17.34375 -64.066406 17.09375 -62.613281 17.09375 -61.0625 C 17.09375 -60.050781 17.25 -59.019531 17.5625 -57.96875 C 17.875 -56.925781 18.609375 -55.84375 19.765625 -54.71875 C 20.929688 -53.59375 22.640625 -52.503906 24.890625 -51.453125 C 27.140625 -50.410156 30.203125 -49.390625 34.078125 -48.390625 C 38.734375 -47.222656 42.648438 -45.960938 45.828125 -44.609375 C 49.003906 -43.253906 51.679688 -41.644531 53.859375 -39.78125 C 58.972656 -35.59375 61.53125 -30.046875 61.53125 -23.140625 Z M 61.53125 -23.140625 "/></g></g></g><g fill="#ffffff" fill-opacity="1"><g transform="translate(717.328643, 175.84282)"><g><path d="M 61.53125 -23.140625 C 61.53125 -19.648438 60.832031 -16.410156 59.4375 -13.421875 C 58.039062 -10.441406 55.984375 -7.828125 53.265625 -5.578125 C 47.921875 -1.085938 41.0625 1.15625 32.6875 1.15625 C 26.164062 1.15625 20.269531 -0.175781 15 -2.84375 C 9.726562 -5.519531 5.851562 -9.109375 3.375 -13.609375 L 13.71875 -18.953125 C 15.269531 -16.160156 17.734375 -14.007812 21.109375 -12.5 C 24.484375 -10.988281 28.34375 -10.234375 32.6875 -10.234375 C 43.925781 -10.234375 49.546875 -14.535156 49.546875 -23.140625 C 49.546875 -24.773438 49.253906 -26.171875 48.671875 -27.328125 C 48.085938 -28.492188 47.21875 -29.582031 46.0625 -30.59375 C 43.269531 -32.914062 38.269531 -35.007812 31.0625 -36.875 C 26.71875 -37.957031 23.03125 -39.15625 20 -40.46875 C 16.976562 -41.789062 14.460938 -43.34375 12.453125 -45.125 C 7.566406 -49.082031 5.125 -54.316406 5.125 -60.828125 C 5.125 -64.085938 5.757812 -67.128906 7.03125 -69.953125 C 8.3125 -72.785156 10.117188 -75.25 12.453125 -77.34375 C 14.847656 -79.4375 17.65625 -81.003906 20.875 -82.046875 C 24.09375 -83.097656 27.640625 -83.625 31.515625 -83.625 C 37.179688 -83.625 42.394531 -82.535156 47.15625 -80.359375 C 51.925781 -78.191406 55.554688 -75.132812 58.046875 -71.1875 L 48.625 -65.375 C 46.375 -68.082031 43.773438 -70 40.828125 -71.125 C 37.878906 -72.25 34.773438 -72.8125 31.515625 -72.8125 C 29.191406 -72.8125 27.0625 -72.421875 25.125 -71.640625 C 23.1875 -70.867188 21.554688 -69.941406 20.234375 -68.859375 C 19.148438 -67.929688 18.351562 -66.785156 17.84375 -65.421875 C 17.34375 -64.066406 17.09375 -62.613281 17.09375 -61.0625 C 17.09375 -60.050781 17.25 -59.019531 17.5625 -57.96875 C 17.875 -56.925781 18.609375 -55.84375 19.765625 -54.71875 C 20.929688 -53.59375 22.640625 -52.503906 24.890625 -51.453125 C 27.140625 -50.410156 30.203125 -49.390625 34.078125 -48.390625 C 38.734375 -47.222656 42.648438 -45.960938 45.828125 -44.609375 C 49.003906 -43.253906 51.679688 -41.644531 53.859375 -39.78125 C 58.972656 -35.59375 61.53125 -30.046875 61.53125 -23.140625 Z M 61.53125 -23.140625 "/></g></g></g><g fill="#ffffff" fill-opacity="1"><g transform="translate(417.115046, 218.864786)"><g><path d="M 6.5 -12.765625 C 7.375 -12.765625 8.125 -12.609375 8.75 -12.296875 C 9.382812 -11.984375 9.863281 -11.535156 10.1875 -10.953125 C 10.519531 -10.367188 10.6875 -9.679688 10.6875 -8.890625 C 10.6875 -8.097656 10.519531 -7.410156 10.1875 -6.828125 C 9.863281 -6.242188 9.382812 -5.789062 8.75 -5.46875 C 8.125 -5.15625 7.375 -5 6.5 -5 L 3.4375 -5 L 3.4375 0 L 1.9375 0 L 1.9375 -12.765625 Z M 6.453125 -6.28125 C 8.234375 -6.28125 9.125 -7.148438 9.125 -8.890625 C 9.125 -10.628906 8.234375 -11.5 6.453125 -11.5 L 3.4375 -11.5 L 3.4375 -6.28125 Z M 6.453125 -6.28125 "/></g></g></g><g fill="#ffffff" fill-opacity="1"><g transform="translate(428.756458, 218.864786)"><g><path d="M 5.53125 0.1875 C 4.625 0.1875 3.832031 -0.00390625 3.15625 -0.390625 C 2.488281 -0.773438 1.972656 -1.34375 1.609375 -2.09375 C 1.242188 -2.84375 1.0625 -3.75 1.0625 -4.8125 C 1.0625 -5.875 1.242188 -6.78125 1.609375 -7.53125 C 1.972656 -8.289062 2.488281 -8.859375 3.15625 -9.234375 C 3.832031 -9.617188 4.625 -9.8125 5.53125 -9.8125 C 6.4375 -9.8125 7.222656 -9.617188 7.890625 -9.234375 C 8.566406 -8.859375 9.085938 -8.289062 9.453125 -7.53125 C 9.816406 -6.78125 10 -5.875 10 -4.8125 C 10 -3.75 9.816406 -2.84375 9.453125 -2.09375 C 9.085938 -1.34375 8.566406 -0.773438 7.890625 -0.390625 C 7.222656 -0.00390625 6.4375 0.1875 5.53125 0.1875 Z M 5.53125 -1.09375 C 6.488281 -1.09375 7.222656 -1.394531 7.734375 -2 C 8.242188 -2.601562 8.5 -3.539062 8.5 -4.8125 C 8.5 -6.082031 8.242188 -7.019531 7.734375 -7.625 C 7.222656 -8.238281 6.488281 -8.546875 5.53125 -8.546875 C 4.570312 -8.546875 3.832031 -8.238281 3.3125 -7.625 C 2.800781 -7.019531 2.546875 -6.082031 2.546875 -4.8125 C 2.546875 -3.539062 2.800781 -2.601562 3.3125 -2 C 3.832031 -1.394531 4.570312 -1.09375 5.53125 -1.09375 Z M 5.53125 -1.09375 "/></g></g></g><g fill="#ffffff" fill-opacity="1"><g transform="translate(439.812743, 218.864786)"><g><path d="M 4.78125 0 L 2.984375 0 L 0.625 -9.640625 L 2.03125 -9.640625 L 3.859375 -1.65625 L 4.03125 -1.65625 L 6.28125 -9.640625 L 7.78125 -9.640625 L 10.09375 -1.65625 L 10.265625 -1.65625 L 12.0625 -9.640625 L 13.421875 -9.640625 L 11.09375 0 L 9.28125 0 L 7.078125 -7.484375 L 6.90625 -7.484375 Z M 4.78125 0 "/></g></g></g><g fill="#ffffff" fill-opacity="1"><g transform="translate(453.855797, 218.864786)"><g><path d="M 9.1875 -4.484375 L 2.5625 -4.484375 C 2.601562 -3.316406 2.882812 -2.457031 3.40625 -1.90625 C 3.925781 -1.363281 4.640625 -1.09375 5.546875 -1.09375 C 6.234375 -1.09375 6.785156 -1.210938 7.203125 -1.453125 C 7.617188 -1.703125 7.945312 -2.085938 8.1875 -2.609375 L 8.375 -2.609375 L 9.296875 -2.0625 C 9.023438 -1.363281 8.582031 -0.8125 7.96875 -0.40625 C 7.351562 -0.0078125 6.546875 0.1875 5.546875 0.1875 C 4.617188 0.1875 3.816406 0.00390625 3.140625 -0.359375 C 2.472656 -0.734375 1.957031 -1.289062 1.59375 -2.03125 C 1.238281 -2.78125 1.0625 -3.707031 1.0625 -4.8125 C 1.0625 -5.90625 1.25 -6.828125 1.625 -7.578125 C 2.007812 -8.328125 2.53125 -8.882812 3.1875 -9.25 C 3.851562 -9.625 4.609375 -9.8125 5.453125 -9.8125 C 6.691406 -9.8125 7.65625 -9.460938 8.34375 -8.765625 C 9.039062 -8.078125 9.394531 -7.046875 9.40625 -5.671875 C 9.40625 -5.140625 9.390625 -4.78125 9.359375 -4.59375 Z M 8 -5.671875 C 7.96875 -6.703125 7.738281 -7.445312 7.3125 -7.90625 C 6.882812 -8.375 6.265625 -8.609375 5.453125 -8.609375 C 4.609375 -8.609375 3.945312 -8.375 3.46875 -7.90625 C 2.988281 -7.4375 2.695312 -6.691406 2.59375 -5.671875 Z M 8 -5.671875 "/></g></g></g><g fill="#ffffff" fill-opacity="1"><g transform="translate(464.126091, 218.864786)"><g><path d="M 1.671875 0 L 1.671875 -9.640625 L 3.03125 -9.640625 L 3.03125 -8.125 L 3.21875 -8.078125 C 3.664062 -9.171875 4.507812 -9.71875 5.75 -9.71875 C 6.40625 -9.71875 6.894531 -9.597656 7.21875 -9.359375 L 6.859375 -8.15625 L 6.6875 -8.125 C 6.320312 -8.300781 5.925781 -8.390625 5.5 -8.390625 C 4.726562 -8.390625 4.132812 -8.101562 3.71875 -7.53125 C 3.300781 -6.957031 3.09375 -6.019531 3.09375 -4.71875 L 3.09375 0 Z M 1.671875 0 "/></g></g></g><g fill="#ffffff" fill-opacity="1"><g transform="translate(471.566813, 218.864786)"><g><path d="M 9.1875 -4.484375 L 2.5625 -4.484375 C 2.601562 -3.316406 2.882812 -2.457031 3.40625 -1.90625 C 3.925781 -1.363281 4.640625 -1.09375 5.546875 -1.09375 C 6.234375 -1.09375 6.785156 -1.210938 7.203125 -1.453125 C 7.617188 -1.703125 7.945312 -2.085938 8.1875 -2.609375 L 8.375 -2.609375 L 9.296875 -2.0625 C 9.023438 -1.363281 8.582031 -0.8125 7.96875 -0.40625 C 7.351562 -0.0078125 6.546875 0.1875 5.546875 0.1875 C 4.617188 0.1875 3.816406 0.00390625 3.140625 -0.359375 C 2.472656 -0.734375 1.957031 -1.289062 1.59375 -2.03125 C 1.238281 -2.78125 1.0625 -3.707031 1.0625 -4.8125 C 1.0625 -5.90625 1.25 -6.828125 1.625 -7.578125 C 2.007812 -8.328125 2.53125 -8.882812 3.1875 -9.25 C 3.851562 -9.625 4.609375 -9.8125 5.453125 -9.8125 C 6.691406 -9.8125 7.65625 -9.460938 8.34375 -8.765625 C 9.039062 -8.078125 9.394531 -7.046875 9.40625 -5.671875 C 9.40625 -5.140625 9.390625 -4.78125 9.359375 -4.59375 Z M 8 -5.671875 C 7.96875 -6.703125 7.738281 -7.445312 7.3125 -7.90625 C 6.882812 -8.375 6.265625 -8.609375 5.453125 -8.609375 C 4.609375 -8.609375 3.945312 -8.375 3.46875 -7.90625 C 2.988281 -7.4375 2.695312 -6.691406 2.59375 -5.671875 Z M 8 -5.671875 "/></g></g></g><g fill="#ffffff" fill-opacity="1"><g transform="translate(481.837106, 218.864786)"><g><path d="M 5 0.1875 C 4.21875 0.1875 3.53125 0.00390625 2.9375 -0.359375 C 2.351562 -0.734375 1.894531 -1.289062 1.5625 -2.03125 C 1.226562 -2.78125 1.0625 -3.707031 1.0625 -4.8125 C 1.0625 -5.914062 1.234375 -6.835938 1.578125 -7.578125 C 1.929688 -8.328125 2.414062 -8.882812 3.03125 -9.25 C 3.644531 -9.625 4.351562 -9.8125 5.15625 -9.8125 C 5.800781 -9.8125 6.378906 -9.691406 6.890625 -9.453125 C 7.398438 -9.210938 7.84375 -8.816406 8.21875 -8.265625 L 8.390625 -8.296875 L 8.390625 -13.5 L 9.8125 -13.5 L 9.8125 0 L 8.390625 0 L 8.390625 -1.40625 L 8.21875 -1.4375 C 7.894531 -0.957031 7.460938 -0.566406 6.921875 -0.265625 C 6.390625 0.0351562 5.75 0.1875 5 0.1875 Z M 5.4375 -1.09375 C 6.332031 -1.09375 7.046875 -1.398438 7.578125 -2.015625 C 8.117188 -2.628906 8.390625 -3.5625 8.390625 -4.8125 C 8.390625 -6.070312 8.117188 -7.007812 7.578125 -7.625 C 7.046875 -8.238281 6.332031 -8.546875 5.4375 -8.546875 C 4.507812 -8.546875 3.796875 -8.242188 3.296875 -7.640625 C 2.796875 -7.046875 2.546875 -6.101562 2.546875 -4.8125 C 2.546875 -2.332031 3.507812 -1.09375 5.4375 -1.09375 Z M 5.4375 -1.09375 "/></g></g></g><g fill="#ffffff" fill-opacity="1"><g transform="translate(493.338787, 218.864786)"><g/></g></g><g fill="#ffffff" fill-opacity="1"><g transform="translate(497.722875, 218.864786)"><g><path d="M 6.40625 0.1875 C 5.6875 0.1875 5.0625 0.0507812 4.53125 -0.21875 C 4.007812 -0.5 3.59375 -0.867188 3.28125 -1.328125 L 3.09375 -1.296875 L 3.09375 0 L 1.671875 0 L 1.671875 -13.5 L 3.09375 -13.5 L 3.09375 -8.1875 L 3.28125 -8.15625 C 4.019531 -9.257812 5.085938 -9.8125 6.484375 -9.8125 C 7.273438 -9.8125 7.96875 -9.628906 8.5625 -9.265625 C 9.15625 -8.898438 9.613281 -8.34375 9.9375 -7.59375 C 10.269531 -6.84375 10.4375 -5.914062 10.4375 -4.8125 C 10.4375 -3.71875 10.265625 -2.796875 9.921875 -2.046875 C 9.578125 -1.296875 9.097656 -0.734375 8.484375 -0.359375 C 7.878906 0.00390625 7.1875 0.1875 6.40625 0.1875 Z M 6.0625 -1.09375 C 7.988281 -1.09375 8.953125 -2.332031 8.953125 -4.8125 C 8.953125 -6.101562 8.695312 -7.046875 8.1875 -7.640625 C 7.6875 -8.242188 6.976562 -8.546875 6.0625 -8.546875 C 5.15625 -8.546875 4.429688 -8.238281 3.890625 -7.625 C 3.359375 -7.007812 3.09375 -6.070312 3.09375 -4.8125 C 3.09375 -3.5625 3.359375 -2.628906 3.890625 -2.015625 C 4.429688 -1.398438 5.15625 -1.09375 6.0625 -1.09375 Z M 6.0625 -1.09375 "/></g></g></g><g fill="#ffffff" fill-opacity="1"><g transform="translate(509.215822, 218.864786)"><g><path d="M 1.9375 4.09375 C 1.601562 4.09375 1.296875 4.0625 1.015625 4 C 0.734375 3.945312 0.488281 3.875 0.28125 3.78125 L 0.546875 2.640625 L 0.703125 2.59375 C 0.847656 2.664062 1.023438 2.722656 1.234375 2.765625 C 1.441406 2.816406 1.65625 2.84375 1.875 2.84375 C 2.269531 2.84375 2.59375 2.789062 2.84375 2.6875 C 3.101562 2.582031 3.320312 2.410156 3.5 2.171875 C 3.6875 1.929688 3.859375 1.597656 4.015625 1.171875 L 4.359375 0.234375 L 0.484375 -9.640625 L 2.03125 -9.640625 L 5.0625 -1.765625 L 5.21875 -1.765625 L 8.15625 -9.640625 L 9.625 -9.640625 L 5.3125 1.515625 C 5.0625 2.128906 4.785156 2.625 4.484375 3 C 4.179688 3.375 3.820312 3.648438 3.40625 3.828125 C 3 4.003906 2.507812 4.09375 1.9375 4.09375 Z M 1.9375 4.09375 "/></g></g></g><g fill="#ffffff" fill-opacity="1"><g transform="translate(519.380994, 218.864786)"><g/></g></g><g fill="#ffffff" fill-opacity="1"><g transform="translate(523.765082, 218.864786)"><g/></g></g><g fill="#ffffff" fill-opacity="1"><g transform="translate(533.932487, 218.189903)"><g><path d="M 1.546875 0 L 1.546875 -10.671875 L 5.6875 -10.671875 C 6.707031 -10.671875 7.523438 -10.410156 8.140625 -9.890625 C 8.753906 -9.378906 9.0625 -8.691406 9.0625 -7.828125 C 9.0625 -7.304688 8.9375 -6.847656 8.6875 -6.453125 C 8.445312 -6.054688 8.109375 -5.75 7.671875 -5.53125 C 8.222656 -5.300781 8.644531 -4.96875 8.9375 -4.53125 C 9.226562 -4.101562 9.375 -3.585938 9.375 -2.984375 C 9.375 -2.054688 9.0625 -1.328125 8.4375 -0.796875 C 7.8125 -0.265625 6.957031 0 5.875 0 Z M 2.890625 -1.25 L 5.84375 -1.25 C 6.539062 -1.25 7.070312 -1.40625 7.4375 -1.71875 C 7.8125 -2.03125 8 -2.472656 8 -3.046875 C 8 -3.617188 7.8125 -4.054688 7.4375 -4.359375 C 7.0625 -4.671875 6.523438 -4.828125 5.828125 -4.828125 L 2.890625 -4.828125 Z M 2.890625 -6.046875 L 5.65625 -6.046875 C 6.3125 -6.046875 6.8125 -6.191406 7.15625 -6.484375 C 7.507812 -6.785156 7.6875 -7.195312 7.6875 -7.71875 C 7.6875 -8.257812 7.507812 -8.675781 7.15625 -8.96875 C 6.800781 -9.269531 6.300781 -9.421875 5.65625 -9.421875 L 2.890625 -9.421875 Z M 2.890625 -6.046875 "/></g></g></g><g fill="#ffffff" fill-opacity="1"><g transform="translate(544.153233, 218.189903)"><g><path d="M 1.546875 0 L 1.546875 -10.671875 L 2.890625 -10.671875 L 2.890625 -1.28125 L 8.078125 -1.28125 L 8.078125 0 Z M 1.546875 0 "/></g></g></g><g fill="#ffffff" fill-opacity="1"><g transform="translate(552.698432, 218.189903)"><g><path d="M 0.265625 0 L 4.640625 -10.671875 L 5.890625 -10.671875 L 10.28125 0 L 8.859375 0 L 7.859375 -2.421875 L 2.671875 -2.421875 L 1.6875 0 Z M 3.1875 -3.671875 L 7.359375 -3.671875 L 5.265625 -8.796875 Z M 3.1875 -3.671875 "/></g></g></g><g fill="#ffffff" fill-opacity="1"><g transform="translate(563.239048, 218.189903)"><g><path d="M 6.28125 0.203125 C 5.5 0.203125 4.773438 0.0664062 4.109375 -0.203125 C 3.453125 -0.484375 2.878906 -0.867188 2.390625 -1.359375 C 1.910156 -1.859375 1.539062 -2.441406 1.28125 -3.109375 C 1.019531 -3.785156 0.890625 -4.523438 0.890625 -5.328125 C 0.890625 -6.128906 1.019531 -6.867188 1.28125 -7.546875 C 1.539062 -8.222656 1.910156 -8.804688 2.390625 -9.296875 C 2.878906 -9.796875 3.453125 -10.179688 4.109375 -10.453125 C 4.773438 -10.722656 5.5 -10.859375 6.28125 -10.859375 C 7.125 -10.859375 7.894531 -10.703125 8.59375 -10.390625 C 9.300781 -10.085938 9.90625 -9.648438 10.40625 -9.078125 C 10.914062 -8.503906 11.285156 -7.820312 11.515625 -7.03125 L 10.078125 -7.03125 C 9.804688 -7.8125 9.332031 -8.421875 8.65625 -8.859375 C 7.976562 -9.296875 7.203125 -9.515625 6.328125 -9.515625 C 5.535156 -9.515625 4.832031 -9.335938 4.21875 -8.984375 C 3.613281 -8.628906 3.132812 -8.132812 2.78125 -7.5 C 2.425781 -6.875 2.25 -6.148438 2.25 -5.328125 C 2.25 -4.503906 2.425781 -3.773438 2.78125 -3.140625 C 3.132812 -2.515625 3.613281 -2.023438 4.21875 -1.671875 C 4.832031 -1.316406 5.535156 -1.140625 6.328125 -1.140625 C 7.222656 -1.140625 8.019531 -1.375 8.71875 -1.84375 C 9.425781 -2.3125 9.914062 -2.945312 10.1875 -3.75 L 11.609375 -3.75 C 11.390625 -2.957031 11.023438 -2.265625 10.515625 -1.671875 C 10.003906 -1.085938 9.382812 -0.628906 8.65625 -0.296875 C 7.9375 0.0351562 7.144531 0.203125 6.28125 0.203125 Z M 6.28125 0.203125 "/></g></g></g><g fill="#ffffff" fill-opacity="1"><g transform="translate(575.66844, 218.189903)"><g><path d="M 1.546875 0 L 1.546875 -10.671875 L 2.890625 -10.671875 L 2.890625 -6.078125 L 4.421875 -6.078125 C 5.140625 -6.078125 5.679688 -6.207031 6.046875 -6.46875 C 6.410156 -6.726562 6.703125 -7.144531 6.921875 -7.71875 L 8.015625 -10.671875 L 9.4375 -10.671875 L 8.125 -7.1875 C 7.96875 -6.78125 7.78125 -6.425781 7.5625 -6.125 C 7.34375 -5.832031 7.082031 -5.582031 6.78125 -5.375 L 9.84375 0 L 8.28125 0 L 5.53125 -4.890625 C 5.195312 -4.828125 4.828125 -4.796875 4.421875 -4.796875 L 2.890625 -4.796875 L 2.890625 0 Z M 1.546875 0 "/></g></g></g><g fill="#ffffff" fill-opacity="1"><g transform="translate(586.087189, 218.189903)"><g/></g></g><g fill="#ffffff" fill-opacity="1"><g transform="translate(589.864759, 218.189903)"><g><path d="M 1.546875 0 L 1.546875 -10.671875 L 5.171875 -10.671875 C 5.972656 -10.671875 6.671875 -10.519531 7.265625 -10.21875 C 7.859375 -9.925781 8.316406 -9.515625 8.640625 -8.984375 C 8.960938 -8.453125 9.125 -7.816406 9.125 -7.078125 C 9.125 -6.347656 8.960938 -5.71875 8.640625 -5.1875 C 8.316406 -4.65625 7.859375 -4.238281 7.265625 -3.9375 C 6.671875 -3.644531 5.972656 -3.5 5.171875 -3.5 L 2.890625 -3.5 L 2.890625 0 Z M 2.890625 -4.75 L 5.140625 -4.75 C 6.878906 -4.75 7.75 -5.519531 7.75 -7.0625 C 7.75 -8.613281 6.878906 -9.390625 5.140625 -9.390625 L 2.890625 -9.390625 Z M 2.890625 -4.75 "/></g></g></g><g fill="#ffffff" fill-opacity="1"><g transform="translate(599.598078, 218.189903)"><g><path d="M 0.265625 0 L 4.640625 -10.671875 L 5.890625 -10.671875 L 10.28125 0 L 8.859375 0 L 7.859375 -2.421875 L 2.671875 -2.421875 L 1.6875 0 Z M 3.1875 -3.671875 L 7.359375 -3.671875 L 5.265625 -8.796875 Z M 3.1875 -3.671875 "/></g></g></g><g fill="#ffffff" fill-opacity="1"><g transform="translate(610.138694, 218.189903)"><g><path d="M 1.546875 0 L 1.546875 -10.671875 L 2.8125 -10.671875 L 8.71875 -2.3125 L 8.71875 -10.671875 L 10.03125 -10.671875 L 10.03125 0 L 8.78125 0 L 2.875 -8.34375 L 2.875 0 Z M 1.546875 0 "/></g></g></g><g fill="#ffffff" fill-opacity="1"><g transform="translate(621.715098, 218.189903)"><g><path d="M 4.125 0 L 4.125 -9.390625 L 0.515625 -9.390625 L 0.515625 -10.671875 L 9.0625 -10.671875 L 9.0625 -9.390625 L 5.46875 -9.390625 L 5.46875 0 Z M 4.125 0 "/></g></g></g><g fill="#ffffff" fill-opacity="1"><g transform="translate(631.311327, 218.189903)"><g><path d="M 8.546875 0 L 8.546875 -4.796875 L 2.890625 -4.796875 L 2.890625 0 L 1.546875 0 L 1.546875 -10.671875 L 2.890625 -10.671875 L 2.890625 -6.078125 L 8.546875 -6.078125 L 8.546875 -10.671875 L 9.890625 -10.671875 L 9.890625 0 Z M 8.546875 0 "/></g></g></g><g fill="#ffffff" fill-opacity="1"><g transform="translate(642.750641, 218.189903)"><g><path d="M 1.546875 0 L 1.546875 -10.671875 L 8.03125 -10.671875 L 8.03125 -9.421875 L 2.890625 -9.421875 L 2.890625 -6.046875 L 7.640625 -6.046875 L 7.640625 -4.8125 L 2.890625 -4.8125 L 2.890625 -1.25 L 8.203125 -1.25 L 8.203125 0 Z M 1.546875 0 "/></g></g></g><g fill="#ffffff" fill-opacity="1"><g transform="translate(651.935599, 218.189903)"><g><path d="M 1.546875 0 L 1.546875 -10.671875 L 5.625 -10.671875 C 6.363281 -10.671875 7.003906 -10.53125 7.546875 -10.25 C 8.097656 -9.96875 8.523438 -9.570312 8.828125 -9.0625 C 9.140625 -8.550781 9.296875 -7.941406 9.296875 -7.234375 C 9.296875 -6.367188 9.070312 -5.65625 8.625 -5.09375 C 8.175781 -4.53125 7.5625 -4.15625 6.78125 -3.96875 L 9.453125 0 L 7.84375 0 L 5.234375 -3.828125 L 2.890625 -3.828125 L 2.890625 0 Z M 2.890625 -5.109375 L 5.46875 -5.109375 C 6.25 -5.109375 6.851562 -5.289062 7.28125 -5.65625 C 7.707031 -6.03125 7.921875 -6.554688 7.921875 -7.234375 C 7.921875 -7.910156 7.707031 -8.4375 7.28125 -8.8125 C 6.851562 -9.195312 6.25 -9.390625 5.46875 -9.390625 L 2.890625 -9.390625 Z M 2.890625 -5.109375 "/></g></g></g><g fill="#ffffff" fill-opacity="1"><g transform="translate(662.308659, 218.189903)"><g><path d="M 5.109375 0.203125 C 4.253906 0.203125 3.515625 0.0546875 2.890625 -0.234375 C 2.265625 -0.523438 1.78125 -0.929688 1.4375 -1.453125 C 1.09375 -1.972656 0.921875 -2.582031 0.921875 -3.28125 L 2.25 -3.28125 C 2.269531 -2.59375 2.539062 -2.050781 3.0625 -1.65625 C 3.59375 -1.269531 4.273438 -1.078125 5.109375 -1.078125 C 5.859375 -1.078125 6.453125 -1.222656 6.890625 -1.515625 C 7.335938 -1.816406 7.5625 -2.226562 7.5625 -2.75 C 7.5625 -3.25 7.347656 -3.648438 6.921875 -3.953125 C 6.492188 -4.253906 5.796875 -4.515625 4.828125 -4.734375 C 3.515625 -5.046875 2.550781 -5.445312 1.9375 -5.9375 C 1.332031 -6.4375 1.03125 -7.097656 1.03125 -7.921875 C 1.03125 -8.828125 1.375 -9.539062 2.0625 -10.0625 C 2.75 -10.59375 3.675781 -10.859375 4.84375 -10.859375 C 6.039062 -10.859375 6.988281 -10.554688 7.6875 -9.953125 C 8.382812 -9.359375 8.738281 -8.546875 8.75 -7.515625 L 7.421875 -7.515625 C 7.410156 -8.148438 7.171875 -8.648438 6.703125 -9.015625 C 6.242188 -9.390625 5.625 -9.578125 4.84375 -9.578125 C 4.082031 -9.578125 3.484375 -9.425781 3.046875 -9.125 C 2.617188 -8.832031 2.40625 -8.429688 2.40625 -7.921875 C 2.40625 -7.484375 2.601562 -7.113281 3 -6.8125 C 3.40625 -6.519531 4.128906 -6.242188 5.171875 -5.984375 C 6.523438 -5.648438 7.488281 -5.226562 8.0625 -4.71875 C 8.644531 -4.21875 8.9375 -3.578125 8.9375 -2.796875 C 8.9375 -1.878906 8.585938 -1.148438 7.890625 -0.609375 C 7.203125 -0.0664062 6.273438 0.203125 5.109375 0.203125 Z M 5.109375 0.203125 "/></g></g></g></svg>