<svg xmlns="http://www.w3.org/2000/svg" xmlns:xlink="http://www.w3.org/1999/xlink" width="197" zoomAndPan="magnify" viewBox="0 0 147.75 147.750002" height="197" preserveAspectRatio="xMidYMid meet" version="1.0"><defs><clipPath id="60fcf7450d"><path d="M 0 0 L 147.5 0 L 147.5 147.5 L 0 147.5 Z M 0 0 " clip-rule="nonzero"/></clipPath><clipPath id="80bfd34b7e"><path d="M 11.105469 11.105469 L 135.953125 11.105469 L 135.953125 135.953125 L 11.105469 135.953125 Z M 11.105469 11.105469 " clip-rule="nonzero"/></clipPath><clipPath id="77407be0e5"><path d="M 73.53125 11.105469 C 39.054688 11.105469 11.105469 39.054688 11.105469 73.53125 C 11.105469 108.007812 39.054688 135.953125 73.53125 135.953125 C 108.003906 135.953125 135.953125 108.007812 135.953125 73.53125 C 135.953125 39.054688 108.003906 11.105469 73.53125 11.105469 Z M 73.53125 11.105469 " clip-rule="nonzero"/></clipPath><clipPath id="3634557527"><path d="M 42 25.4375 L 106 25.4375 L 106 122.773438 L 42 122.773438 Z M 42 25.4375 " clip-rule="nonzero"/></clipPath></defs><g clip-path="url(#60fcf7450d)"><path fill="#000000" d="M 73.8125 -0.0117188 C 72.605469 -0.0117188 71.398438 0.015625 70.195312 0.0742188 C 68.988281 0.136719 67.785156 0.222656 66.585938 0.34375 C 65.382812 0.460938 64.1875 0.609375 62.992188 0.785156 C 61.796875 0.960938 60.609375 1.167969 59.425781 1.402344 C 58.242188 1.640625 57.066406 1.902344 55.894531 2.195312 C 54.722656 2.492188 53.5625 2.8125 52.40625 3.164062 C 51.253906 3.511719 50.105469 3.890625 48.96875 4.296875 C 47.835938 4.703125 46.707031 5.136719 45.59375 5.601562 C 44.480469 6.0625 43.375 6.550781 42.285156 7.066406 C 41.195312 7.582031 40.117188 8.125 39.050781 8.695312 C 37.988281 9.261719 36.9375 9.859375 35.902344 10.476562 C 34.867188 11.097656 33.847656 11.742188 32.84375 12.414062 C 31.84375 13.085938 30.855469 13.78125 29.886719 14.5 C 28.917969 15.21875 27.964844 15.960938 27.035156 16.726562 C 26.101562 17.492188 25.1875 18.277344 24.292969 19.089844 C 23.398438 19.898438 22.523438 20.730469 21.671875 21.585938 C 20.816406 22.4375 19.988281 23.3125 19.175781 24.207031 C 18.367188 25.101562 17.578125 26.011719 16.8125 26.945312 C 16.046875 27.878906 15.304688 28.828125 14.585938 29.800781 C 13.867188 30.769531 13.171875 31.753906 12.5 32.757812 C 11.832031 33.761719 11.1875 34.78125 10.566406 35.816406 C 9.945312 36.851562 9.351562 37.902344 8.78125 38.964844 C 8.210938 40.03125 7.671875 41.105469 7.152344 42.199219 C 6.636719 43.289062 6.148438 44.390625 5.6875 45.507812 C 5.226562 46.621094 4.792969 47.746094 4.386719 48.882812 C 3.976562 50.019531 3.601562 51.164062 3.25 52.320312 C 2.898438 53.472656 2.578125 54.636719 2.285156 55.808594 C 1.992188 56.976562 1.726562 58.15625 1.492188 59.339844 C 1.257812 60.523438 1.050781 61.710938 0.871094 62.90625 C 0.695312 64.097656 0.546875 65.296875 0.429688 66.496094 C 0.3125 67.699219 0.222656 68.902344 0.164062 70.105469 C 0.105469 71.3125 0.0742188 72.515625 0.0742188 73.722656 C 0.0742188 74.929688 0.105469 76.136719 0.164062 77.34375 C 0.222656 78.546875 0.3125 79.75 0.429688 80.953125 C 0.546875 82.152344 0.695312 83.351562 0.871094 84.542969 C 1.050781 85.738281 1.257812 86.925781 1.492188 88.109375 C 1.726562 89.292969 1.992188 90.46875 2.285156 91.640625 C 2.578125 92.8125 2.898438 93.972656 3.25 95.128906 C 3.601562 96.285156 3.980469 97.429688 4.386719 98.566406 C 4.792969 99.703125 5.226562 100.828125 5.6875 101.941406 C 6.148438 103.058594 6.636719 104.160156 7.15625 105.25 C 7.671875 106.34375 8.210938 107.417969 8.78125 108.484375 C 9.351562 109.546875 9.945312 110.597656 10.566406 111.632812 C 11.1875 112.667969 11.832031 113.6875 12.5 114.691406 C 13.171875 115.695312 13.867188 116.679688 14.585938 117.648438 C 15.304688 118.617188 16.046875 119.570312 16.8125 120.503906 C 17.578125 121.4375 18.367188 122.347656 19.175781 123.242188 C 19.988281 124.136719 20.820312 125.011719 21.671875 125.863281 C 22.523438 126.71875 23.398438 127.550781 24.292969 128.359375 C 25.1875 129.171875 26.101562 129.957031 27.035156 130.722656 C 27.964844 131.488281 28.917969 132.230469 29.886719 132.949219 C 30.855469 133.667969 31.84375 134.363281 32.847656 135.035156 C 33.847656 135.703125 34.867188 136.351562 35.902344 136.972656 C 36.9375 137.589844 37.988281 138.1875 39.050781 138.753906 C 40.117188 139.324219 41.195312 139.867188 42.285156 140.382812 C 43.375 140.898438 44.480469 141.386719 45.59375 141.847656 C 46.707031 142.308594 47.835938 142.746094 48.96875 143.152344 C 50.105469 143.558594 51.253906 143.9375 52.40625 144.285156 C 53.5625 144.636719 54.722656 144.957031 55.894531 145.25 C 57.066406 145.542969 58.242188 145.808594 59.425781 146.042969 C 60.609375 146.28125 61.796875 146.488281 62.992188 146.664062 C 64.1875 146.839844 65.382812 146.988281 66.585938 147.105469 C 67.785156 147.226562 68.988281 147.3125 70.195312 147.371094 C 71.398438 147.433594 72.605469 147.460938 73.8125 147.460938 C 75.019531 147.460938 76.222656 147.433594 77.429688 147.371094 C 78.636719 147.3125 79.839844 147.226562 81.039062 147.105469 C 82.242188 146.988281 83.4375 146.839844 84.632812 146.664062 C 85.824219 146.484375 87.011719 146.28125 88.195312 146.042969 C 89.378906 145.808594 90.558594 145.542969 91.726562 145.25 C 92.898438 144.957031 94.0625 144.636719 95.214844 144.285156 C 96.371094 143.9375 97.515625 143.558594 98.652344 143.152344 C 99.789062 142.746094 100.914062 142.308594 102.03125 141.847656 C 103.144531 141.386719 104.246094 140.898438 105.339844 140.382812 C 106.429688 139.867188 107.507812 139.324219 108.570312 138.753906 C 109.636719 138.183594 110.683594 137.589844 111.71875 136.96875 C 112.753906 136.351562 113.773438 135.703125 114.777344 135.035156 C 115.78125 134.363281 116.769531 133.667969 117.738281 132.949219 C 118.707031 132.230469 119.65625 131.488281 120.589844 130.722656 C 121.523438 129.957031 122.4375 129.171875 123.332031 128.359375 C 124.226562 127.550781 125.097656 126.71875 125.953125 125.863281 C 126.804688 125.011719 127.636719 124.136719 128.449219 123.242188 C 129.257812 122.347656 130.046875 121.433594 130.8125 120.503906 C 131.578125 119.570312 132.320312 118.617188 133.039062 117.648438 C 133.757812 116.679688 134.453125 115.695312 135.121094 114.691406 C 135.792969 113.6875 136.4375 112.667969 137.058594 111.632812 C 137.679688 110.597656 138.273438 109.546875 138.84375 108.484375 C 139.410156 107.417969 139.953125 106.339844 140.46875 105.25 C 140.984375 104.160156 141.472656 103.058594 141.9375 101.941406 C 142.398438 100.828125 142.832031 99.703125 143.238281 98.566406 C 143.644531 97.429688 144.023438 96.285156 144.375 95.128906 C 144.722656 93.972656 145.046875 92.8125 145.339844 91.640625 C 145.632812 90.46875 145.898438 89.292969 146.132812 88.109375 C 146.367188 86.925781 146.574219 85.738281 146.75 84.542969 C 146.929688 83.351562 147.074219 82.152344 147.195312 80.953125 C 147.3125 79.75 147.402344 78.546875 147.460938 77.34375 C 147.519531 76.136719 147.550781 74.929688 147.550781 73.722656 C 147.550781 72.515625 147.519531 71.3125 147.460938 70.105469 C 147.402344 68.902344 147.3125 67.699219 147.195312 66.496094 C 147.074219 65.296875 146.929688 64.097656 146.75 62.90625 C 146.574219 61.710938 146.367188 60.523438 146.132812 59.339844 C 145.898438 58.15625 145.632812 56.976562 145.339844 55.808594 C 145.046875 54.636719 144.722656 53.472656 144.375 52.320312 C 144.023438 51.164062 143.644531 50.019531 143.238281 48.882812 C 142.832031 47.746094 142.398438 46.621094 141.9375 45.507812 C 141.472656 44.390625 140.984375 43.289062 140.46875 42.199219 C 139.953125 41.105469 139.410156 40.027344 138.84375 38.964844 C 138.273438 37.902344 137.679688 36.851562 137.058594 35.816406 C 136.4375 34.78125 135.792969 33.761719 135.121094 32.757812 C 134.453125 31.753906 133.757812 30.769531 133.039062 29.800781 C 132.320312 28.828125 131.578125 27.878906 130.8125 26.945312 C 130.046875 26.011719 129.257812 25.097656 128.445312 24.207031 C 127.636719 23.3125 126.804688 22.4375 125.953125 21.585938 C 125.097656 20.730469 124.222656 19.898438 123.332031 19.089844 C 122.4375 18.277344 121.523438 17.488281 120.589844 16.722656 C 119.65625 15.960938 118.707031 15.214844 117.738281 14.496094 C 116.765625 13.777344 115.78125 13.085938 114.777344 12.414062 C 113.773438 11.742188 112.753906 11.097656 111.71875 10.476562 C 110.683594 9.855469 109.636719 9.261719 108.570312 8.695312 C 107.507812 8.125 106.429688 7.582031 105.339844 7.066406 C 104.246094 6.550781 103.144531 6.0625 102.03125 5.601562 C 100.914062 5.136719 99.789062 4.703125 98.652344 4.296875 C 97.515625 3.890625 96.371094 3.511719 95.214844 3.164062 C 94.0625 2.8125 92.898438 2.488281 91.726562 2.195312 C 90.558594 1.902344 89.378906 1.640625 88.195312 1.402344 C 87.011719 1.167969 85.824219 0.960938 84.632812 0.785156 C 83.4375 0.609375 82.238281 0.460938 81.039062 0.34375 C 79.839844 0.222656 78.636719 0.136719 77.429688 0.0742188 C 76.222656 0.015625 75.019531 -0.0117188 73.8125 -0.0117188 Z M 73.8125 12.800781 C 75.808594 12.800781 77.796875 12.898438 79.785156 13.09375 C 81.769531 13.289062 83.742188 13.582031 85.699219 13.96875 C 87.65625 14.359375 89.585938 14.84375 91.496094 15.421875 C 93.40625 16.003906 95.28125 16.671875 97.125 17.4375 C 98.96875 18.199219 100.773438 19.054688 102.53125 19.992188 C 104.292969 20.933594 106 21.957031 107.660156 23.066406 C 109.320312 24.175781 110.917969 25.363281 112.460938 26.628906 C 114.003906 27.894531 115.480469 29.234375 116.890625 30.644531 C 118.304688 32.054688 119.640625 33.53125 120.90625 35.074219 C 122.171875 36.617188 123.359375 38.21875 124.46875 39.875 C 125.578125 41.535156 126.601562 43.246094 127.542969 45.003906 C 128.484375 46.765625 129.335938 48.566406 130.097656 50.410156 C 130.863281 52.253906 131.535156 54.128906 132.113281 56.039062 C 132.691406 57.949219 133.175781 59.882812 133.566406 61.839844 C 133.957031 63.796875 134.246094 65.765625 134.445312 67.753906 C 134.640625 69.738281 134.738281 71.730469 134.738281 73.722656 C 134.738281 75.71875 134.640625 77.710938 134.445312 79.695312 C 134.246094 81.683594 133.957031 83.652344 133.566406 85.609375 C 133.175781 87.566406 132.691406 89.5 132.113281 91.410156 C 131.535156 93.320312 130.863281 95.195312 130.097656 97.039062 C 129.335938 98.882812 128.484375 100.683594 127.542969 102.445312 C 126.601562 104.203125 125.578125 105.914062 124.46875 107.570312 C 123.359375 109.230469 122.171875 110.832031 120.90625 112.375 C 119.640625 113.917969 118.304688 115.394531 116.890625 116.804688 C 115.480469 118.214844 114.003906 119.554688 112.460938 120.820312 C 110.917969 122.085938 109.320312 123.273438 107.660156 124.382812 C 106 125.488281 104.292969 126.515625 102.53125 127.457031 C 100.773438 128.394531 98.96875 129.246094 97.125 130.011719 C 95.28125 130.773438 93.40625 131.445312 91.496094 132.027344 C 89.585938 132.605469 87.65625 133.089844 85.699219 133.480469 C 83.742188 133.867188 81.769531 134.160156 79.785156 134.355469 C 77.796875 134.550781 75.808594 134.648438 73.8125 134.648438 C 71.816406 134.648438 69.824219 134.550781 67.839844 134.355469 C 65.855469 134.160156 63.882812 133.867188 61.925781 133.480469 C 59.96875 133.089844 58.035156 132.605469 56.125 132.027344 C 54.214844 131.445312 52.339844 130.773438 50.496094 130.011719 C 48.652344 129.246094 46.851562 128.394531 45.09375 127.457031 C 43.332031 126.515625 41.621094 125.488281 39.964844 124.382812 C 38.304688 123.273438 36.703125 122.085938 35.160156 120.820312 C 33.617188 119.554688 32.140625 118.214844 30.730469 116.804688 C 29.320312 115.394531 27.980469 113.917969 26.714844 112.375 C 25.449219 110.832031 24.261719 109.230469 23.15625 107.570312 C 22.046875 105.914062 21.023438 104.203125 20.082031 102.445312 C 19.140625 100.683594 18.289062 98.882812 17.523438 97.039062 C 16.761719 95.195312 16.089844 93.320312 15.511719 91.410156 C 14.929688 89.5 14.445312 87.566406 14.058594 85.609375 C 13.667969 83.652344 13.375 81.683594 13.179688 79.695312 C 12.984375 77.710938 12.886719 75.71875 12.886719 73.722656 C 12.886719 71.730469 12.984375 69.738281 13.179688 67.753906 C 13.375 65.765625 13.667969 63.796875 14.058594 61.839844 C 14.445312 59.882812 14.929688 57.949219 15.511719 56.039062 C 16.089844 54.128906 16.761719 52.253906 17.523438 50.410156 C 18.289062 48.566406 19.140625 46.765625 20.082031 45.003906 C 21.023438 43.246094 22.046875 41.535156 23.15625 39.875 C 24.261719 38.21875 25.449219 36.617188 26.714844 35.074219 C 27.980469 33.53125 29.320312 32.054688 30.730469 30.644531 C 32.140625 29.234375 33.617188 27.894531 35.160156 26.628906 C 36.703125 25.363281 38.304688 24.175781 39.964844 23.066406 C 41.621094 21.957031 43.332031 20.933594 45.09375 19.992188 C 46.851562 19.054688 48.652344 18.199219 50.496094 17.4375 C 52.339844 16.671875 54.214844 16.003906 56.125 15.421875 C 58.035156 14.84375 59.96875 14.359375 61.925781 13.96875 C 63.882812 13.582031 65.855469 13.289062 67.839844 13.09375 C 69.824219 12.898438 71.816406 12.800781 73.8125 12.800781 Z M 73.8125 12.800781 " fill-opacity="1" fill-rule="nonzero"/></g><g clip-path="url(#80bfd34b7e)"><g clip-path="url(#77407be0e5)"><path fill="#f1b911" d="M 11.105469 11.105469 L 135.953125 11.105469 L 135.953125 135.953125 L 11.105469 135.953125 Z M 11.105469 11.105469 " fill-opacity="1" fill-rule="nonzero"/></g></g><g clip-path="url(#3634557527)"><path fill="#d11b1b" d="M 74.691406 25.4375 C 54.574219 25.4375 43.167969 36.707031 42.84375 53.023438 L 42.84375 53.839844 L 60.601562 53.839844 L 60.601562 53.023438 C 60.992188 45.816406 65.976562 41.167969 73.511719 41.167969 C 80.980469 41.167969 85.957031 45.484375 85.957031 51.578125 C 85.957031 57.671875 83.402344 60.820312 74.953125 65.867188 C 65.910156 71.171875 62.300781 77.070312 63.152344 87.554688 L 63.257812 90.351562 L 80.648438 90.351562 L 80.648438 87.6875 C 80.648438 81.402344 83.078125 78.183594 91.789062 73.140625 C 101.027344 67.699219 105.808594 60.824219 105.808594 50.992188 C 105.808594 35.855469 93.429688 25.4375 74.691406 25.4375 Z M 72.328125 102.523438 C 65.664062 102.523438 61.503906 106.394531 61.503906 112.699219 C 61.503906 118.945312 65.667969 122.808594 72.328125 122.808594 C 78.992188 122.808594 83.097656 118.945312 83.097656 112.699219 C 83.097656 106.394531 78.996094 102.523438 72.328125 102.523438 Z M 72.328125 102.523438 " fill-opacity="1" fill-rule="nonzero"/></g></svg>